PathFileType	4	(X/Y/Z)	RBDS015\RBDS015runT45.trc
DataRate	CameraRate	NumFrames	NumMarkers	Units	OrigDataRate	OrigDataStartFrame	OrigNumFrames
150.000000	150.000000	4	33	mm	150.000000	0	4500
Frame#	Time	L.ASIS			L.Heel.Bottom			L.Heel.Lateral			L.Heel.Top			L.Iliac.Crest			L.MT1			L.MT5			L.PSIS			L.Shank.Bottom.Lateral			L.Shank.Bottom.Medial			L.Shank.Top.Lateral			L.Shank.Top.Medial			L.Thigh.Bottom.Lateral			L.Thigh.Bottom.Medial			L.Thigh.Top.Lateral			L.Thigh.Top.Medial			R.ASIS			R.ASY			R.Heel.Bottom			R.Heel.Lateral			R.Heel.Top			R.Iliac.Crest			R.MT1			R.MT5			R.PSIS			R.Shank.Bottom.Lateral			R.Shank.Bottom.Medial			R.Shank.Top.Lateral			R.Shank.Top.Medial			R.Thigh.Bottom.Lateral			R.Thigh.Bottom.Medial			R.Thigh.Top.Lateral			R.Thigh.Top.Medial			
		X1	Y1	Z1	X2	Y2	Z2	X3	Y3	Z3	X4	Y4	Z4	X5	Y5	Z5	X6	Y6	Z6	X7	Y7	Z7	X8	Y8	Z8	X9	Y9	Z9	X10	Y10	Z10	X11	Y11	Z11	X12	Y12	Z12	X13	Y13	Z13	X14	Y14	Z14	X15	Y15	Z15	X16	Y16	Z16	X17	Y17	Z17	X18	Y18	Z18	X19	Y19	Z19	X20	Y20	Z20	X21	Y21	Z21	X22	Y22	Z22	X23	Y23	Z23	X24	Y24	Z24	X25	Y25	Z25	X26	Y26	Z26	X27	Y27	Z27	X28	Y28	Z28	X29	Y29	Z29	X30	Y30	Z30	X31	Y31	Z31	X32	Y32	Z32	X33	Y33	Z33	

1	0	2221.907239970929	1028.051412647232	900.5113537317953	1881.680288959164	283.2707892616704	965.6953616826805	1909.86584208811	279.7863591744359	923.1101248610508	1918.215657254234	304.6272706872265	967.2868790117467	2143.23615684143	1113.380015810236	868.7673485699065	2033.08587801799	135.1184108525991	987.0847735684994	1999.434819583541	158.2267511994049	880.2053198276082	2048.914304271698	1083.657756869374	975.6474186032117	2052.021360557307	338.6149498226652	899.325308586086	2022.644964478626	372.915711819699	923.1347671970226	2109.511198355235	393.8603235883728	884.7063872436697	2082.722300362878	431.2629742436243	910.614507318934	2297.989935570483	685.3023391640202	848.1276736841025	2241.978330852628	652.2233016322111	868.8707740033528	2238.632772593575	777.7455152041057	835.4972774483001	2179.959922334515	741.9252620943623	857.1391911774761	2226.085272429262	1010.908524259669	1125.260915701685	1879.046176333945	87.50143322861254	1056.57675710851	1693.086941392251	113.1567971242338	1035.697892766417	1721.750943941833	119.3237931189639	1080.172809342012	1718.96529355824	151.879227445268	1039.832359468683	2169.656598352319	1098.375231820371	1170.379451787298	1886.469056863803	42.68722089970874	1008.607499653287	1840.656178492281	43.70346498877713	1121.105157711592	2052.419541946075	1085.96322399889	1067.450859602097	1839.242959615918	220.9821221791971	1100.476465306469	1798.81419303615	250.1616225978292	1075.148465754473	1878.728696776768	290.8613605247912	1114.655587022822	1838.215610733449	318.017817884971	1090.363502758353	2068.140086293646	670.0483174584059	1157.742802715793	2009.53068740394	677.5648998484725	1115.372556006289	2069.722646657252	778.9871673880417	1170.58442257706	2014.566185535837	787.2529300032271	1129.759441084313	
2	0.006666666666666667	2223.083154817723	1032.501900213894	900.052267783869	1910.784670707787	258.2686531555236	970.2281192510903	1938.1892684618	256.8191662701739	927.1506283426348	1945.313178803674	282.2750609372076	971.2861837232664	2142.444581512487	1120.225971481959	869.3907744394453	2072.992949939802	123.0958543879842	988.7626376822526	2035.872591933672	143.0279934875486	882.525981640199	2050.965388441383	1088.808183516005	975.7484745646406	2074.805749871502	326.4114380542383	902.1358777029693	2043.360589648243	358.0725386920702	926.4318009080063	2127.468608353693	385.6056260114948	887.2029115404048	2098.271538267809	420.6269329657321	913.5913786405924	2301.397579109123	692.0196504942694	849.9417811698189	2245.784227046382	658.8760765238359	871.4198101157906	2241.523476457783	783.985694772941	836.5338647063267	2183.137661638468	748.1299195893679	859.0861875357148	2228.171258228383	1014.159382216723	1125.092395458963	1856.599164522177	87.6122812916296	1059.238840983169	1674.876857331094	128.4901785379349	1039.705218942192	1703.864674046597	131.3852224120882	1083.951595988259	1703.413266931373	164.5694100493683	1044.346813206643	2175.273768746798	1102.47727109983	1170.238297798424	1860.000778965988	43.33931512981851	1010.176361603231	1814.834312570129	46.24387496325263	1122.753869068824	2055.093525914328	1090.134243635144	1067.964842406805	1822.533777785428	229.4459400538805	1104.054716104498	1782.158638053979	258.0907874458151	1078.100676596799	1861.904942533019	299.636294629787	1117.233736821937	1821.460803769435	326.2588697936558	1092.376377683967	2059.066513137784	676.8282907102729	1156.850510598028	2000.681999571861	687.0000385391537	1114.809326319248	2065.061712490884	785.2418052479543	1170.226946963793	2010.273839892732	795.8391995322186	1129.408718041246	
3	0.01333333333333333	2224.344903396691	1036.95696027129	899.6410883095084	1940.305445787186	233.5492550742113	974.6119849456354	1966.933829032346	234.1127632295169	931.0645858796307	1972.766056176083	260.1646183526957	975.1451301601511	2141.819256607826	1126.996769917224	869.9130832644488	2112.974497386368	111.6164098564836	990.4875251694214	2072.586666166138	128.2665805878276	884.8501564292491	2053.025599238872	1093.909895814648	975.8665552094772	2097.724171129774	314.3477562958735	904.8558047199923	2064.280271267855	343.3454202166583	929.6455327461002	2145.49784041602	377.3688273474625	889.616375267619	2113.957241113059	409.981260600894	916.4836172227994	2304.507161753389	698.4439497596181	851.763650594352	2249.247487946986	665.2548366098	873.9243598940283	2244.170351970294	789.974205590359	837.6159621765836	2186.041682405338	754.108100700655	861.0388491973672	2230.256143324236	1017.368857413073	1124.893221051172	1834.291455608583	88.13429726210887	1061.837390015028	1657.050377410399	143.9993729666504	1043.791783464635	1686.338585441578	143.6659368155418	1087.782107000158	1688.191483278086	177.4009283670939	1048.868290633603	2180.751479021797	1106.582579109787	1170.067839994221	1833.691725628016	44.416878746817	1011.75505344271	1789.320349970036	49.2293244436871	1124.418004573438	2057.76528247478	1094.286057683351	1068.470233675698	1806.122992696458	237.9765061742278	1107.589317513971	1765.799624712251	266.1397332291443	1081.07015439181	1845.43221644534	308.4371446029874	1119.789988724812	1805.060262622068	334.576904296203	1094.412556005558	2050.202626971193	683.5745373633039	1155.994349935308	1992.075701032146	696.3250872274803	1114.244897477285	2060.519996535902	791.4596992941796	1169.858379849998	2006.120149290946	804.3204864056299	1129.03046264917	
4	0.02	2225.760786368811	1041.41589108349	899.3272199447379	1970.702249481554	209.4262122254024	978.7077629426645	1996.561728493042	211.9657364581479	934.7344368741661	2000.970213375084	238.5647934291016	978.734707500838	2141.522265055515	1133.627898319801	870.2471140881411	2153.138772039942	101.2623734513934	992.3108258573596	2109.889494159368	114.4362801281535	887.1874085225002	2055.105436357736	1098.938106927596	976.0151908234006	2120.951616270962	302.6011437984039	907.4057574410043	2085.642304246687	328.8821021398096	932.697071752278	2163.70450353568	369.2057727124476	891.8738971897071	2129.945877491748	399.3470014049615	919.211959534994	2307.036090963753	704.3051396111033	853.5767025915799	2252.059481340627	671.1131846905903	876.344165071028	2246.336156056694	795.4761975464797	838.7600416699466	2188.420143332297	759.6544568578579	862.9989241406885	2232.341477279679	1020.500027303633	1124.631524955021	1812.214017951964	89.45611738757263	1064.308569642317	1639.893071548803	159.8467648885688	1048.012505985697	1669.436211391956	156.3668142112884	1091.694576979924	1673.535572925171	190.5119494413046	1053.390685563451	2185.980129381571	1110.693933982304	1169.831936219539	1807.659076368398	46.32252353690946	1013.340793388469	1764.349810971421	53.06563388681231	1126.098810702865	2060.436708690555	1098.419102600375	1068.961280777362	1790.233410958703	246.6466591116831	1111.033167404176	1749.960404661713	274.4353219132303	1084.064580654556	1829.589385138604	317.2967028200534	1122.29961906534	1789.297262863088	343.057909020706	1096.48957313644	2041.750417121925	690.2593215567424	1155.210987054761	1983.933270443768	705.4472841269735	1113.69502507231	2056.218925304976	797.609567685924	1169.478227648213	2002.236988001801	812.6076493390233	1128.617965787481	
